<svg width="18" height="14" viewBox="0 0 18 14" fill="none" xmlns="http://www.w3.org/2000/svg">
<path d="M0.398869 0.526367C0.659649 0.526367 0.849307 0.526367 1.03897 0.526367C5.78042 0.526367 10.5219 0.526367 15.2633 0.526367C16.745 0.526367 17.4681 1.25024 17.4681 2.75733C17.4681 3.56428 17.48 4.38309 17.4681 5.19003C17.4562 6.37671 16.6739 7.15992 15.5004 7.17179C14.9077 7.18366 14.3269 7.17179 13.6868 7.17179C13.6868 8.0974 13.6868 8.95182 13.6868 9.81809C13.6749 12.1915 12.0747 13.8053 9.71582 13.8172C7.93778 13.8172 6.15973 13.8291 4.38169 13.8172C2.04652 13.8053 0.422576 12.2033 0.422576 9.87743C0.387016 6.78019 0.398869 3.70668 0.398869 0.526367ZM13.7223 2.43693C13.7223 3.36254 13.7223 4.30002 13.7223 5.2375C14.3387 5.2375 14.9314 5.2375 15.5241 5.2375C15.5241 4.28815 15.5241 3.36254 15.5241 2.43693C14.9077 2.43693 14.3387 2.43693 13.7223 2.43693Z" fill="#292929"/>
</svg>
